<?xml version="1.0" encoding="utf-8"?>
<svg version="1.1" id="Layer_1" xmlns="http://www.w3.org/2000/svg" xmlns:xlink="http://www.w3.org/1999/xlink" x="0px" y="0px"
	 viewBox="0 0 300 545" style="enable-background:new 0 0 300 545;" xml:space="preserve">
<style type="text/css">
	.st0{fill:#6E7A4D;}
	.st1{fill:#FFFFFF;}
	.st2{fill:none;}
</style>
<path class="st0" d="M164.4,433.2c5.3-17.1,9.8-33.7,13.6-49.9c3.8-16.2,6.8-31,9.1-44.4c1.6-9.5,2.9-17.6,3.9-24.2
	c-10.2,6.1-20.7,12.7-31.4,19.8c-12.5,8.3-24.7,17.1-36.5,26.5s-23.1,19.2-33.8,29.4c-10.7,10.2-20.3,20.6-28.7,31
	s-15.3,20.9-20.9,31.3c-5.5,10.4-9.1,20.5-10.9,30.2c-0.1,0.7-0.3,1.3-0.4,2c-0.8,5.4-0.7,10.4,0.2,15.3c1.1,5.7,2.9,11,5.6,16
	c2.7,4.9,6.1,9.3,10.3,13.2s8.9,6.9,14.2,9.2c3.2,1.4,6.5,2.4,10,3.1c2.2,0.4,4.4,0.6,6.7,0.8c6,0.3,12.1-0.6,18.2-2.6
	c10.5-3.6,20-10.5,28.7-21.1c8.8-10.7,16.7-23.3,23.6-38C153,466,159.1,450.2,164.4,433.2z"/>
<path class="st1" d="M55.3,550.6c4.2,1.9,8.6,3.3,13.1,4.1c2.2,0.4,4.4,0.7,6.7,0.8c7,0.4,13.9-0.6,20.6-3.2c4.8-1.7,9.3-4,13.8-6.8
	H46.3C49.1,547.4,52.1,549.1,55.3,550.6z"/>
<path class="st2" d="M164.4,433.2c5.3-17.1,9.8-33.7,13.6-49.9c3.8-16.2,6.8-31,9.1-44.4c1.6-9.5,2.9-17.6,3.9-24.2
	c-10.2,6.1-20.7,12.7-31.4,19.8c-12.5,8.3-24.7,17.1-36.5,26.5s-23.1,19.2-33.8,29.4c-10.7,10.2-20.3,20.6-28.7,31
	s-15.3,20.9-20.9,31.3c-5.5,10.4-9.1,20.5-10.9,30.2c-0.1,0.7-0.3,1.3-0.4,2c-0.8,5.4-0.7,10.4,0.2,15.3c1.1,5.7,2.9,11,5.6,16
	c2.7,4.9,6.1,9.3,10.3,13.2s8.9,6.9,14.2,9.2c3.2,1.4,6.5,2.4,10,3.1c2.2,0.4,4.4,0.6,6.7,0.8c6,0.3,12.1-0.6,18.2-2.6
	c10.5-3.6,20-10.5,28.7-21.1c8.8-10.7,16.7-23.3,23.6-38C153,466,159.1,450.2,164.4,433.2z"/>
<g>
	<path class="st2" d="M164.4,433.2c5.3-17.1,9.8-33.7,13.6-49.9c3.8-16.2,6.8-31,9.1-44.4c1.6-9.5,2.9-17.6,3.9-24.2
		c-10.2,6.1-20.7,12.7-31.4,19.8c-12.5,8.3-24.7,17.1-36.5,26.5s-23.1,19.2-33.8,29.4c-10.7,10.2-20.3,20.6-28.7,31
		s-15.3,20.9-20.9,31.3c-5.5,10.4-9.1,20.5-10.9,30.2c-0.1,0.7-0.3,1.3-0.4,2c-0.8,5.4-0.7,10.4,0.2,15.3c1.1,5.7,2.9,11,5.6,16
		c2.7,4.9,6.1,9.3,10.3,13.2s8.9,6.9,14.2,9.2c3.2,1.4,6.5,2.4,10,3.1c2.2,0.4,4.4,0.6,6.7,0.8c6,0.3,12.1-0.6,18.2-2.6
		c10.5-3.6,20-10.5,28.7-21.1c8.8-10.7,16.7-23.3,23.6-38C153,466,159.1,450.2,164.4,433.2z"/>
	<path class="st0" d="M0.4-45v590.5h45.8c-2.9-1.9-5.6-4.1-8.2-6.5c-5.3-4.9-9.7-10.6-13.3-17c-3.6-6.5-6-13.7-7.4-21.4
		c-1.2-6.8-1.2-13.9-0.2-21.1c0.2-1.2,0.4-2.3,0.6-3.4c1.9-9.6,5.4-19.2,10.4-28.6c5-9.3,10.9-18.5,17.9-27.6
		c7-9,14.8-17.8,23.3-26.4C78,385,86.8,376.8,96,368.8c9.2-7.9,18.5-15.4,27.9-22.4s18.4-13.5,27.1-19.4c8.7-6,16.7-11.2,24.2-15.8
		c6.7-4.1,12.6-7.6,17.6-10.4c0.4-2.3,0.9-5.2,1.4-8.6c0.7-4.6,1.3-9.4,2-14.5c0.6-5.1,1.2-10.4,1.8-15.7c0.5-4.5,0.9-8.5,1.2-12.2
		c-8,8.1-18.1,17.5-29.2,26.1c-16.3,12.5-24.4,17.9-55,42.1c-2.9-3.1,28.6-30.4,50.2-49.2c21-18.2,33.9-39.7,36.4-43
		c0.3-0.7,0.6-1.4,1-2.1c1.5-2.5,3-4.5,4.5-5.4c1.3-1.1,3-1.9,4.7-1.6c0.4,0.1,0.9,0.2,1.3,0.5c1.9,0.8,3.2,3.9,3.1,6.4
		c0,1,0,2-0.2,3c-0.3,1.7-0.7,3.4-1.4,5c-0.2,1.2-0.4,2.5-0.6,4c-0.4,2.3-0.7,5-1.1,8.1c-0.7,5.6-1.6,11.7-2.5,18.3
		c-0.9,6.6-1.8,13.4-2.7,20.3c-0.5,4.1-1.1,8-1.6,11.6c3.9-2,8.1-3.9,12.4-5.9c6.3-2.8,12.5-5.4,18.4-7.5c6-2.2,11.5-4,16.5-5.4
		c5.2-1.5,24.9-8.3,27.5,7.6s-13.4,23.5-10.8,17.9c1.6-3.5,5-10.6,1.5-13.9c-0.7-0.7-1.5-1.1-2.5-1.3c-0.8-0.2-1.7-0.2-2.9,0.1
		c-2.9,0.3-7.1,1.3-12.5,2.8c-5.2,1.5-10.9,3.3-17.1,5.5c-6.2,2.2-12.3,4.6-18.4,7.2c-5.4,2.3-10.1,4.6-14.3,7
		c-0.1,0.8-0.2,1.6-0.3,2.4c-1.8,11.8-3.9,24.7-6.5,38.8c-2.9,16-6.5,32.4-10.7,49.2c-4.2,16.8-9.1,33.4-14.6,49.7
		c-5.6,16.5-12.1,31.7-19.4,45.7c-7.4,14-15.8,26.2-25.1,36.5c-5.5,6.1-11.5,11.2-17.7,15.1H300V-45H0.4z"/>
	<path class="st1" d="M127.1,530.3c9.3-10.3,17.7-22.5,25.1-36.5s13.9-29.3,19.4-45.7c5.5-16.3,10.4-32.9,14.6-49.7
		c4.2-16.8,7.8-33.2,10.7-49.2c2.6-14.1,4.7-27,6.5-38.8c0.1-0.8,0.2-1.6,0.3-2.4c4.2-2.4,9-4.7,14.3-7c6.1-2.6,12.3-5,18.4-7.2
		c6.2-2.2,11.9-4.1,17.1-5.5c5.3-1.5,9.5-2.4,12.5-2.8c1.2-0.2,2.1-0.2,2.9-0.1c1.1,0.2,1.9,0.6,2.5,1.3c3.5,3.4,0.1,10.5-1.5,13.9
		c-2.6,5.6,13.4-2,10.8-17.9s-22.3-9.1-27.5-7.6c-5,1.4-10.5,3.2-16.5,5.4c-6,2.2-12.1,4.7-18.4,7.5c-4.4,2-8.5,3.9-12.4,5.9
		c0.5-3.6,1.1-7.5,1.6-11.6c0.9-6.9,1.8-13.6,2.7-20.3c0.9-6.6,1.7-12.8,2.5-18.3c0.4-3.1,0.8-5.8,1.1-8.1c0.2-1.5,0.4-2.9,0.6-4
		c0.6-1.7,1.1-3.3,1.4-5c0.2-1,0.2-2,0.2-3c0.1-2.5-1.3-5.5-3.1-6.4c-0.4-0.3-0.9-0.4-1.3-0.5c-1.7-0.3-3.3,0.5-4.7,1.6
		c-1.5,0.9-3,2.9-4.5,5.4c-0.4,0.7-0.7,1.4-1,2.1c-2.5,3.3-15.4,24.8-36.4,43c-21.6,18.8-53.1,46-50.2,49.2
		c30.6-24.2,38.8-29.6,55-42.1c11.1-8.6,21.3-18,29.2-26.1c-0.3,3.7-0.7,7.7-1.2,12.2c-0.6,5.3-1.2,10.5-1.8,15.7
		c-0.6,5.1-1.3,10-2,14.5c-0.5,3.4-1,6.3-1.4,8.6c-5,2.8-10.9,6.3-17.6,10.4c-7.5,4.6-15.6,9.9-24.2,15.8
		c-8.7,6-17.7,12.5-27.1,19.4c-9.4,7-18.7,14.5-27.9,22.4s-18,16.1-26.5,24.6S53,410.7,46,419.8s-13,18.3-17.9,27.6
		c-5,9.4-8.5,19-10.4,28.6c-0.2,1.1-0.4,2.3-0.6,3.4c-1.1,7.2-1,14.3,0.2,21.1c1.4,7.7,3.8,14.9,7.4,21.4c3.5,6.5,8,12.1,13.3,17
		c2.6,2.4,5.4,4.6,8.2,6.5h63.1C115.6,541.5,121.6,536.4,127.1,530.3z M93.7,540c-6.2,2-12.2,2.9-18.2,2.6c-2.3-0.1-4.6-0.4-6.7-0.8
		c-3.5-0.7-6.9-1.7-10-3.1c-5.2-2.3-9.9-5.4-14.2-9.2c-4.2-3.9-7.7-8.3-10.3-13.2c-2.7-5-4.5-10.3-5.6-16c-0.9-5-1-10-0.2-15.3
		c0.1-0.7,0.2-1.3,0.4-2c1.8-9.7,5.4-19.8,10.9-30.2c5.6-10.5,12.5-20.9,20.9-31.3s18-20.8,28.7-31s22-20,33.8-29.4
		c11.8-9.3,24-18.2,36.5-26.5c10.7-7.1,21.2-13.7,31.4-19.8c-1,6.6-2.3,14.7-3.9,24.2c-2.3,13.4-5.3,28.2-9.1,44.4
		c-3.8,16.2-8.3,32.8-13.6,49.9c-5.3,17-11.4,32.9-18.4,47.7c-7,14.7-14.8,27.4-23.6,38C113.7,529.4,104.2,536.4,93.7,540z"/>
</g>
</svg>
